<svg xmlns="http://www.w3.org/2000/svg" viewBox="0 0 680 150" width="680" height="150" role="img" aria-label="First Class Spanish">
<defs><linearGradient id="foil" x1="0" y1="0" x2="1" y2="1">
  <stop offset="0" stop-color="#9C7620"/><stop offset="0.28" stop-color="#E3C46B"/>
  <stop offset="0.52" stop-color="#B8912F"/><stop offset="0.78" stop-color="#F0DA9A"/>
  <stop offset="1" stop-color="#9C7620"/></linearGradient>
<clipPath id="discClip58"><circle cx="74" cy="75" r="53.650000000000006"/></clipPath>
<style>
@import url('https://fonts.googleapis.com/css2?family=Playfair+Display:wght@800&amp;family=Barlow+Condensed:wght@600&amp;display=swap');
.wm  { font-family:'Playfair Display', Georgia, 'Times New Roman', serif; font-weight:800; }
.ut  { font-family:'Barlow Condensed', 'Helvetica Neue', Arial, sans-serif; font-weight:600; }
</style></defs>
<circle cx="74" cy="76.16" r="58" fill="#0B3021" opacity="0.18"/><circle cx="74" cy="75" r="58" fill="url(#foil)"/><circle cx="74" cy="75" r="53.650000000000006" fill="#1C5F3F"/><g clip-path="url(#discClip58)"><ellipse cx="74" cy="75" rx="46.400000000000006" ry="17.4" fill="none" stroke="#E3C46B" stroke-opacity="0.16" stroke-width="1" transform="rotate(0.0 74 75)"/><ellipse cx="74" cy="75" rx="46.400000000000006" ry="17.4" fill="none" stroke="#E3C46B" stroke-opacity="0.16" stroke-width="1" transform="rotate(15.0 74 75)"/><ellipse cx="74" cy="75" rx="46.400000000000006" ry="17.4" fill="none" stroke="#E3C46B" stroke-opacity="0.16" stroke-width="1" transform="rotate(30.0 74 75)"/><ellipse cx="74" cy="75" rx="46.400000000000006" ry="17.4" fill="none" stroke="#E3C46B" stroke-opacity="0.16" stroke-width="1" transform="rotate(45.0 74 75)"/><ellipse cx="74" cy="75" rx="46.400000000000006" ry="17.4" fill="none" stroke="#E3C46B" stroke-opacity="0.16" stroke-width="1" transform="rotate(60.0 74 75)"/><ellipse cx="74" cy="75" rx="46.400000000000006" ry="17.4" fill="none" stroke="#E3C46B" stroke-opacity="0.16" stroke-width="1" transform="rotate(75.0 74 75)"/><ellipse cx="74" cy="75" rx="46.400000000000006" ry="17.4" fill="none" stroke="#E3C46B" stroke-opacity="0.16" stroke-width="1" transform="rotate(90.0 74 75)"/><ellipse cx="74" cy="75" rx="46.400000000000006" ry="17.4" fill="none" stroke="#E3C46B" stroke-opacity="0.16" stroke-width="1" transform="rotate(105.0 74 75)"/><ellipse cx="74" cy="75" rx="46.400000000000006" ry="17.4" fill="none" stroke="#E3C46B" stroke-opacity="0.16" stroke-width="1" transform="rotate(120.0 74 75)"/><ellipse cx="74" cy="75" rx="46.400000000000006" ry="17.4" fill="none" stroke="#E3C46B" stroke-opacity="0.16" stroke-width="1" transform="rotate(135.0 74 75)"/><ellipse cx="74" cy="75" rx="46.400000000000006" ry="17.4" fill="none" stroke="#E3C46B" stroke-opacity="0.16" stroke-width="1" transform="rotate(150.0 74 75)"/><ellipse cx="74" cy="75" rx="46.400000000000006" ry="17.4" fill="none" stroke="#E3C46B" stroke-opacity="0.16" stroke-width="1" transform="rotate(165.0 74 75)"/></g><circle cx="74" cy="75" r="44.95" fill="none" stroke="#E3C46B" stroke-opacity="0.60" stroke-width="1.3"/><path d="M 74.00,45.54 L 81.52,65.35 L 102.68,66.38 L 86.16,79.65 L 91.73,100.10 L 74.00,88.48 L 56.27,100.10 L 61.84,79.65 L 45.32,66.38 L 66.48,65.35 Z" fill="#0B3021" opacity="0.30"/><path d="M 74.00,44.84 L 81.52,64.65 L 102.68,65.68 L 86.16,78.95 L 91.73,99.40 L 74.00,87.79 L 56.27,99.40 L 61.84,78.95 L 45.32,65.68 L 66.48,64.65 Z" fill="#F6F0DF"/>
<line x1="158" y1="24" x2="158" y2="126" stroke="#1C5F3F" stroke-opacity="0.30" stroke-width="1.2" stroke-dasharray="1 6" stroke-linecap="round"/>
<circle cx="158" cy="28" r="2.6" fill="#1C5F3F" fill-opacity="0.55"/>
<circle cx="158" cy="42" r="2.6" fill="#1C5F3F" fill-opacity="0.55"/>
<circle cx="158" cy="56" r="2.6" fill="#1C5F3F" fill-opacity="0.55"/>
<circle cx="158" cy="70" r="2.6" fill="#1C5F3F" fill-opacity="0.55"/>
<circle cx="158" cy="84" r="2.6" fill="#1C5F3F" fill-opacity="0.55"/>
<circle cx="158" cy="98" r="2.6" fill="#1C5F3F" fill-opacity="0.55"/>
<circle cx="158" cy="112" r="2.6" fill="#1C5F3F" fill-opacity="0.55"/>
<circle cx="158" cy="126" r="2.6" fill="#1C5F3F" fill-opacity="0.55"/>
<text class="wm" x="188" y="80" font-size="46" textLength="464" lengthAdjust="spacing" fill="#0F3B27">First Class Spanish</text>
<text id="tagline" class="ut" x="190" y="110" font-size="14" letter-spacing="4.2" fill="#1C5F3F" fill-opacity="0.85">YOUR TICKET TO SPANISH FLUENCY</text>
</svg>