<svg xmlns="http://www.w3.org/2000/svg" viewBox="0 0 512 512" width="512" height="512" role="img" aria-label="First Class Spanish">
<defs><linearGradient id="foil" x1="0" y1="0" x2="1" y2="1">
  <stop offset="0" stop-color="#9C7620"/><stop offset="0.28" stop-color="#E3C46B"/>
  <stop offset="0.52" stop-color="#B8912F"/><stop offset="0.78" stop-color="#F0DA9A"/>
  <stop offset="1" stop-color="#9C7620"/></linearGradient><clipPath id="discClip240"><circle cx="256" cy="256" r="222.0"/></clipPath></defs>
<circle cx="256" cy="260.8" r="240" fill="#0B3021" opacity="0.18"/><circle cx="256" cy="256" r="240" fill="url(#foil)"/><circle cx="256" cy="256" r="222.0" fill="#1C5F3F"/><g clip-path="url(#discClip240)"><ellipse cx="256" cy="256" rx="192.0" ry="72.0" fill="none" stroke="#E3C46B" stroke-opacity="0.16" stroke-width="1" transform="rotate(0.0 256 256)"/><ellipse cx="256" cy="256" rx="192.0" ry="72.0" fill="none" stroke="#E3C46B" stroke-opacity="0.16" stroke-width="1" transform="rotate(15.0 256 256)"/><ellipse cx="256" cy="256" rx="192.0" ry="72.0" fill="none" stroke="#E3C46B" stroke-opacity="0.16" stroke-width="1" transform="rotate(30.0 256 256)"/><ellipse cx="256" cy="256" rx="192.0" ry="72.0" fill="none" stroke="#E3C46B" stroke-opacity="0.16" stroke-width="1" transform="rotate(45.0 256 256)"/><ellipse cx="256" cy="256" rx="192.0" ry="72.0" fill="none" stroke="#E3C46B" stroke-opacity="0.16" stroke-width="1" transform="rotate(60.0 256 256)"/><ellipse cx="256" cy="256" rx="192.0" ry="72.0" fill="none" stroke="#E3C46B" stroke-opacity="0.16" stroke-width="1" transform="rotate(75.0 256 256)"/><ellipse cx="256" cy="256" rx="192.0" ry="72.0" fill="none" stroke="#E3C46B" stroke-opacity="0.16" stroke-width="1" transform="rotate(90.0 256 256)"/><ellipse cx="256" cy="256" rx="192.0" ry="72.0" fill="none" stroke="#E3C46B" stroke-opacity="0.16" stroke-width="1" transform="rotate(105.0 256 256)"/><ellipse cx="256" cy="256" rx="192.0" ry="72.0" fill="none" stroke="#E3C46B" stroke-opacity="0.16" stroke-width="1" transform="rotate(120.0 256 256)"/><ellipse cx="256" cy="256" rx="192.0" ry="72.0" fill="none" stroke="#E3C46B" stroke-opacity="0.16" stroke-width="1" transform="rotate(135.0 256 256)"/><ellipse cx="256" cy="256" rx="192.0" ry="72.0" fill="none" stroke="#E3C46B" stroke-opacity="0.16" stroke-width="1" transform="rotate(150.0 256 256)"/><ellipse cx="256" cy="256" rx="192.0" ry="72.0" fill="none" stroke="#E3C46B" stroke-opacity="0.16" stroke-width="1" transform="rotate(165.0 256 256)"/></g><circle cx="256" cy="256" r="186.0" fill="none" stroke="#E3C46B" stroke-opacity="0.60" stroke-width="5.3"/><path d="M 256.00,134.08 L 287.10,216.07 L 374.69,220.31 L 306.33,275.23 L 329.36,359.85 L 256.00,311.80 L 182.64,359.85 L 205.67,275.23 L 137.31,220.31 L 224.90,216.07 Z" fill="#0B3021" opacity="0.30"/><path d="M 256.00,131.20 L 287.10,213.19 L 374.69,217.43 L 306.33,272.35 L 329.36,356.97 L 256.00,308.92 L 182.64,356.97 L 205.67,272.35 L 137.31,217.43 L 224.90,213.19 Z" fill="#F6F0DF"/>
</svg>